<svg xmlns="http://www.w3.org/2000/svg" width="1008" height="721" viewBox="0 0 1008 721" fill="none">
		<path d="M981.172 523.738C1010.4 474.795 1014.52 413.48 997.387 347.025C985.477 300.784 980.7 253.702 983.283 207.315C991.527 59.014 936.734 -78.5351 825.295 -152.289C746.12 -204.689 651.735 -215.994 559.475 -192.279C498.396 -176.574 433.194 -176.697 369.086 -191.32C213.843 -226.739 82.0857 -200.247 26.8906 -107.835C-28.3045 -15.422 6.11772 121.052 103.722 252.976C144.025 307.455 172.388 369.257 185.414 434.007C205.096 531.809 255.68 616.449 334.856 668.85C446.275 742.591 587.8 734.97 711.201 662.859C749.794 640.305 792.172 624.432 836.922 615.69C901.229 603.159 951.94 572.682 981.172 523.738Z" fill=""/>
		<path d="M981.172 523.738C1010.4 474.795 1014.52 413.48 997.387 347.025C985.477 300.784 980.7 253.702 983.283 207.315C991.527 59.014 936.734 -78.5351 825.295 -152.289C746.12 -204.689 651.735 -215.994 559.475 -192.279C498.396 -176.574 433.194 -176.697 369.086 -191.32C213.843 -226.739 82.0857 -200.247 26.8906 -107.835C-28.3045 -15.422 6.11772 121.052 103.722 252.976C144.025 307.455 172.388 369.257 185.414 434.007C205.096 531.809 255.68 616.449 334.856 668.85C446.275 742.591 587.8 734.97 711.201 662.859C749.794 640.305 792.172 624.432 836.922 615.69C901.229 603.159 951.94 572.682 981.172 523.738Z" fill="url(#paint0_linear)"/>
		<defs>
		<linearGradient id="paint0_linear" x1="-400.449" y1="-248.775" x2="512.858" y2="656.581" gradientUnits="userSpaceOnUse">
		<stop stop-color="#33CC99"/>
		<stop offset="0.505208" stop-color="#009999"/>
		<stop offset="1" stop-color="#5CFBC6"/>
		</linearGradient>
		</defs>
		</svg>